<svg xmlns="http://www.w3.org/2000/svg" viewBox="0 0 68.01 12.56">
  <defs/>
  <g fill="#fff">
    <g stroke-width=".27" style="line-height:17.0139px" aria-label="Dear.Fa" font-size="10.63">
      <path d="M1.04.87v6.05H2.3q1.6 0 2.34-.73.74-.73.74-2.3 0-1.57-.74-2.3Q3.9.88 2.3.88zM0 0h2.14q2.25 0 3.3.94 1.05.94 1.05 2.95 0 2.01-1.06 2.95-1.05.95-3.29.95H0zM13.06 4.63v.47H8.69q.06.99.59 1.51t1.47.52q.55 0 1.06-.14.52-.14 1.03-.4v.9q-.52.22-1.05.34-.54.11-1.1.11-1.38 0-2.19-.81-.8-.82-.8-2.2 0-1.44.76-2.28.77-.84 2.07-.84 1.17 0 1.85.76.68.75.68 2.06zm-.95-.28q-.01-.8-.44-1.26-.43-.47-1.13-.47-.8 0-1.27.45-.48.46-.55 1.28zM17.25 4.85q-1.15 0-1.6.27-.44.26-.44.9 0 .52.33.82.33.3.9.3.8 0 1.27-.57.49-.57.49-1.5v-.22zm1.9-.4V7.8h-.95V6.9q-.33.53-.82.79-.48.25-1.18.25-.9 0-1.42-.5-.52-.5-.52-1.35 0-.99.65-1.49t1.95-.5h1.34V4q0-.66-.44-1.02-.43-.36-1.2-.36-.5 0-.97.12t-.9.36V2.2q.51-.2 1-.3.5-.1.96-.1 1.26 0 1.88.65.62.66.62 2zM24.46 2.84q-.16-.1-.35-.13-.19-.05-.42-.05-.8 0-1.24.53-.43.53-.43 1.52V7.8h-.95V1.95h.95v.9q.3-.53.78-.78.49-.26 1.17-.26l.22.01.26.04zM24.62 6.46h1.09V7.8h-1.1zM27.89 0h4.43v.89h-3.39v2.3H32v.88h-3.06v3.72H27.9zM35.6 4.85q-1.16 0-1.6.27-.45.26-.45.9 0 .52.33.82.34.3.91.3.8 0 1.27-.57.48-.57.48-1.5v-.22zm1.9-.4V7.8h-.96V6.9q-.33.53-.81.79-.49.25-1.19.25-.89 0-1.42-.5-.52-.5-.52-1.35 0-.99.65-1.49.66-.5 1.96-.5h1.33V4q0-.66-.43-1.02t-1.21-.36q-.5 0-.97.12t-.9.36V2.2q.52-.2 1-.3.5-.1.97-.1 1.25 0 1.87.65.62.66.62 2z"/>
    </g>
    <g stroke-width=".26" style="line-height:1.25" aria-label="Соцсеть для интелегенции" font-size="4.76">
      <path d="M2.8 8.7v.5q-.23-.22-.5-.33-.27-.11-.57-.11-.6 0-.92.36Q.5 9.5.5 10.17q0 .69.31 1.05.32.37.92.37.3 0 .57-.11.27-.11.5-.33v.49q-.24.17-.52.25-.27.08-.58.08-.79 0-1.24-.48Q0 11.01 0 10.17q0-.83.46-1.31.45-.49 1.24-.49.31 0 .58.09.28.08.52.24zM4.52 9.6q-.35 0-.55.27-.2.27-.2.74 0 .46.2.73.2.27.55.27.34 0 .54-.27t.2-.73q0-.47-.2-.74t-.54-.27zm0-.36q.56 0 .88.36.31.36.31 1 0 .65-.31 1.01-.32.36-.88.36t-.88-.36q-.32-.36-.32-1 0-.65.32-1 .32-.37.88-.37zM8.66 11.9H6.4V9.3h.43v2.26h1.39V9.3h.43v2.26H9v1h-.34zM11.54 9.4v.4q-.18-.1-.37-.15-.18-.05-.36-.05-.42 0-.65.27-.23.26-.23.74 0 .47.23.74.23.26.65.26.18 0 .36-.05.19-.05.37-.15v.4q-.18.08-.37.12-.2.04-.41.04-.59 0-.93-.37-.35-.37-.35-1t.35-1q.35-.36.96-.36.2 0 .38.04.2.04.37.12zM14.51 10.5v.2h-1.97q.03.45.27.68.24.23.66.23.25 0 .48-.06.23-.06.46-.18v.4q-.23.1-.47.15-.24.05-.5.05-.61 0-.98-.36-.36-.36-.36-.98 0-.64.34-1.01.35-.38.93-.38.53 0 .83.34.31.34.31.92zm-.43-.13q0-.35-.2-.56-.18-.2-.5-.2-.36 0-.58.2-.21.2-.24.56zM14.9 9.3h2.5v.34h-1.04v2.27h-.42V9.64H14.9zM19.6 11.13q0-.2-.14-.31-.16-.11-.45-.11h-.6v.85h.6q.3 0 .45-.1.15-.12.15-.33zM17.98 9.3h.43v1.06h.63q.5 0 .76.2.27.18.27.57 0 .4-.27.59-.26.19-.76.19h-1.06zM22.89 11.56h1.24V9.64h-.9v.33q0 .96-.27 1.47zm-.62 0q.21-.09.3-.29.23-.49.23-1.48V9.3h1.76v2.26h.34v1h-.34v-.65h-2.11v.65h-.34v-1zM25.33 11.9v-.35q.42-.06.55-.36.16-.4.16-1.46V9.3h1.76v2.6h-.43V9.65h-.9v.26q0 1-.2 1.46-.22.48-.94.55zM29.08 10.05q0 .2.14.3.15.11.43.11h.58v-.82h-.58q-.28 0-.43.11-.14.1-.14.3zm-.61 1.86l.8-1.15q-.28-.06-.46-.21-.18-.16-.18-.5 0-.37.25-.56.25-.19.76-.19h1.02v2.6h-.43v-1.1h-.54l-.76 1.1zM35.24 9.3v2.6h-.43V9.83l-1.25 2.09H33V9.3h.42v2.08L34.7 9.3zM36.1 9.3h.43v1.06h1.4V9.3h.42v2.6h-.43v-1.2h-1.39v1.2h-.43zM38.92 9.3h2.5v.34h-1.04v2.27h-.42V9.64h-1.04zM44.24 10.5v.2h-1.97q.03.45.26.68.24.23.67.23.24 0 .47-.06.24-.06.47-.18v.4q-.24.1-.48.15-.24.05-.49.05-.62 0-.99-.36-.36-.36-.36-.98 0-.64.35-1.01.34-.38.93-.38.52 0 .83.34.3.34.3.92zm-.43-.13q0-.35-.2-.56-.2-.2-.5-.2-.37 0-.58.2-.22.2-.25.56zM44.67 11.9v-.35q.42-.06.55-.36.16-.4.16-1.46V9.3h1.76v2.6h-.43V9.65h-.9v.26q0 1-.21 1.46-.22.48-.93.55zM50.2 10.5v.2h-1.96q.03.45.27.68.24.23.66.23.25 0 .48-.06.23-.06.46-.18v.4q-.23.1-.47.15-.24.05-.5.05-.62 0-.98-.36t-.36-.98q0-.64.34-1.01.35-.38.93-.38.53 0 .83.34.3.34.3.92zm-.42-.13q0-.35-.2-.56-.19-.2-.5-.2-.36 0-.58.2-.21.2-.24.56zM50.9 11.9V9.3h1.83v.34h-1.4v2.27zM55.64 10.5v.2h-1.97q.03.45.27.68.24.23.66.23.25 0 .48-.06.23-.06.46-.18v.4q-.23.1-.47.15-.24.05-.5.05-.61 0-.98-.36-.36-.36-.36-.98 0-.64.34-1.01.35-.38.93-.38.53 0 .83.34.31.34.31.92zm-.43-.13q0-.35-.2-.56-.18-.2-.5-.2-.36 0-.58.2-.21.2-.24.56zM56.33 9.3h.43v1.06h1.39V9.3h.43v2.6h-.43v-1.2h-1.4v1.2h-.42zM61.69 11.9h-2.25V9.3h.43v2.26h1.39V9.3h.43v2.26h.34v1h-.34zM64.91 9.3v2.6h-.42V9.83l-1.26 2.09h-.55V9.3h.43v2.08l1.25-2.09zM68 9.3v2.6h-.42V9.83l-1.25 2.09h-.55V9.3h.42v2.08l1.26-2.09z"/>
    </g>
  </g>
</svg>
