<?xml version="1.0" encoding="UTF-8" standalone="no"?>
<!-- Generator: Adobe Illustrator 19.0.0, SVG Export Plug-In . SVG Version: 6.00 Build 0)  -->

<svg
   version="1.1"
   id="Capa_1"
   x="0px"
   y="0px"
   viewBox="0 0 19.999999 39.999996"
   xml:space="preserve"
   sodipodi:docname="like.svg"
   width="20"
   height="39.999996"
   inkscape:version="1.1 (c4e8f9ed74, 2021-05-24)"
   xmlns:inkscape="http://www.inkscape.org/namespaces/inkscape"
   xmlns:sodipodi="http://sodipodi.sourceforge.net/DTD/sodipodi-0.dtd"
   xmlns="http://www.w3.org/2000/svg"
   xmlns:svg="http://www.w3.org/2000/svg"><defs
   id="defs1004" /><sodipodi:namedview
   id="namedview1002"
   pagecolor="#ffffff"
   bordercolor="#666666"
   borderopacity="1.0"
   inkscape:pageshadow="2"
   inkscape:pageopacity="0.0"
   inkscape:pagecheckerboard="0"
   showgrid="false"
   inkscape:zoom="5.6568543"
   inkscape:cx="22.98097"
   inkscape:cy="52.94462"
   inkscape:window-width="1920"
   inkscape:window-height="1012"
   inkscape:window-x="0"
   inkscape:window-y="42"
   inkscape:window-maximized="1"
   inkscape:current-layer="Capa_1" />
<path
   style="fill:#fd3018;stroke-width:0.0415592"
   d="M 10,20 C 9.862266,20 9.724531,19.94526 9.614062,19.835828 l -0.02559,-0.02538 C 8.736403,18.966591 7.936051,18.194629 7.162106,17.448047 5.085113,15.444677 3.29148,13.714606 2.044723,12.036177 0.649727,10.158204 0,8.4062012 0,6.5224797 0,4.7919652 0.518242,3.1733169 1.45918,1.9647249 2.445664,0.69772381 3.814141,0 5.3125,0 7.419844,0 8.754024,1.4246301 9.502149,2.6197805 9.696289,2.9299095 9.861367,3.2408784 10,3.533498 10.138633,3.2408784 10.30375,2.9299095 10.497851,2.6197805 11.245976,1.4246743 12.580156,0 14.6875,0 16.185859,0 17.554336,0.69776803 18.540782,1.9647249 19.481758,3.1733169 20,4.7919652 20,6.5224797 c 0,1.8837215 -0.649726,3.6357683 -2.044727,5.5136973 -1.246757,1.678429 -3.04039,3.4085 -5.117265,5.411781 -0.774063,0.746671 -1.574414,1.518633 -2.426485,2.36249 l -0.02559,0.02538 C 10.275468,19.945306 10.137734,20 10,20 Z M 5.3125,1.3264712 c -1.15707,0 -2.213281,0.5381493 -2.974141,1.5153164 -0.752226,0.966113 -1.166484,2.2733066 -1.166484,3.6806921 0,3.4049187 2.685352,5.9951183 6.750156,9.9158573 0.667305,0.643647 1.353984,1.305999 2.077969,2.018359 0.724024,-0.712404 1.410664,-1.374712 2.077851,-2.01827 4.064923,-3.920828 6.750274,-6.5110276 6.750274,-9.9159463 0,-1.4073855 -0.414258,-2.7145791 -1.166524,-3.6807363 C 16.900782,1.8646205 15.84457,1.3264712 14.6875,1.3264712 c -1.606602,0 -2.645156,1.1203375 -3.233438,2.0601864 -0.527695,0.8429725 -0.803047,1.6926653 -0.896953,2.018889 C 10.478559,5.6785787 10.253672,5.8633561 10,5.8633561 9.746328,5.8633561 9.521445,5.6785787 9.442891,5.4055466 9.348981,5.0793671 9.073633,4.2296301 8.545938,3.3867019 7.957656,2.4468087 6.919102,1.3264712 5.3125,1.3264712 Z"
   id="path969" />
<g
   id="g971"
   transform="translate(0,422.492)">
</g>
<g
   id="g973"
   transform="translate(0,422.492)">
</g>
<g
   id="g975"
   transform="translate(0,422.492)">
</g>
<g
   id="g977"
   transform="translate(0,422.492)">
</g>
<g
   id="g979"
   transform="translate(0,422.492)">
</g>
<g
   id="g981"
   transform="translate(0,422.492)">
</g>
<g
   id="g983"
   transform="translate(0,422.492)">
</g>
<g
   id="g985"
   transform="translate(0,422.492)">
</g>
<g
   id="g987"
   transform="translate(0,422.492)">
</g>
<g
   id="g989"
   transform="translate(0,422.492)">
</g>
<g
   id="g991"
   transform="translate(0,422.492)">
</g>
<g
   id="g993"
   transform="translate(0,422.492)">
</g>
<g
   id="g995"
   transform="translate(0,422.492)">
</g>
<g
   id="g997"
   transform="translate(0,422.492)">
</g>
<g
   id="g999"
   transform="translate(0,422.492)">
</g>
<g
   id="g1250"
   transform="matrix(0.0390625,0,0,0.04444444,0,18.622222)"
   style="fill:#fd3018;fill-opacity:1"><path
     style="fill:#fd3018;fill-opacity:1"
     d="m 256,481 c -3.53,0 -7.046,-1.23 -9.873,-3.706 C 224.301,458.207 203.544,440.512 184.018,423.871 73.817,329.96 0,267.909 0,177.514 0,93.988 59.037,31 136,31 196.659,31 235.595,73.378 256,111.537 276.405,73.378 315.341,31 376,31 c 76.963,0 136,62.988 136,146.514 0,90.396 -73.817,152.446 -184.018,246.357 -19.526,16.641 -40.283,34.336 -62.109,53.423 C 263.046,479.77 259.53,481 256,481 Z"
     id="path1194" /><path
     style="fill:#fd3018;fill-opacity:1"
     d="m 265.873,477.294 c 21.826,-19.087 42.583,-36.782 62.109,-53.423 C 438.183,329.96 512,267.909 512,177.514 512,93.988 452.963,31 376,31 315.341,31 276.405,73.378 256,111.537 V 481 c 3.53,0 7.046,-1.23 9.873,-3.706 z"
     id="path1196" /><g
     id="g1198"
     style="fill:#fd3018;fill-opacity:1">
</g><g
     id="g1200"
     style="fill:#fd3018;fill-opacity:1">
</g><g
     id="g1202"
     style="fill:#fd3018;fill-opacity:1">
</g><g
     id="g1204"
     style="fill:#fd3018;fill-opacity:1">
</g><g
     id="g1206"
     style="fill:#fd3018;fill-opacity:1">
</g><g
     id="g1208"
     style="fill:#fd3018;fill-opacity:1">
</g><g
     id="g1210"
     style="fill:#fd3018;fill-opacity:1">
</g><g
     id="g1212"
     style="fill:#fd3018;fill-opacity:1">
</g><g
     id="g1214"
     style="fill:#fd3018;fill-opacity:1">
</g><g
     id="g1216"
     style="fill:#fd3018;fill-opacity:1">
</g><g
     id="g1218"
     style="fill:#fd3018;fill-opacity:1">
</g><g
     id="g1220"
     style="fill:#fd3018;fill-opacity:1">
</g><g
     id="g1222"
     style="fill:#fd3018;fill-opacity:1">
</g><g
     id="g1224"
     style="fill:#fd3018;fill-opacity:1">
</g><g
     id="g1226"
     style="fill:#fd3018;fill-opacity:1">
</g></g></svg>
