<?xml version="1.0" encoding="UTF-8" standalone="no"?>
<!-- Created with Inkscape (http://www.inkscape.org/) -->

<svg
   width="257.03809"
   height="47.487305"
   viewBox="0 0 68.007992 12.56435"
   version="1.1"
   id="svg5"
   inkscape:version="1.1 (c4e8f9ed74, 2021-05-24)"
   sodipodi:docname="logo.svg"
   xmlns:inkscape="http://www.inkscape.org/namespaces/inkscape"
   xmlns:sodipodi="http://sodipodi.sourceforge.net/DTD/sodipodi-0.dtd"
   xmlns="http://www.w3.org/2000/svg"
   xmlns:svg="http://www.w3.org/2000/svg">
  <sodipodi:namedview
     id="namedview7"
     pagecolor="#ffffff"
     bordercolor="#666666"
     borderopacity="1.0"
     inkscape:pageshadow="2"
     inkscape:pageopacity="0.0"
     inkscape:pagecheckerboard="0"
     inkscape:document-units="px"
     showgrid="true"
     units="px"
     width="120px"
     inkscape:zoom="2"
     inkscape:cx="-34"
     inkscape:cy="7.75"
     inkscape:window-width="1920"
     inkscape:window-height="1012"
     inkscape:window-x="0"
     inkscape:window-y="42"
     inkscape:window-maximized="1"
     inkscape:current-layer="layer1"
     guidetolerance="20"
     inkscape:snap-grids="true"
     showguides="true"
     inkscape:guide-bbox="true"
     inkscape:snap-to-guides="true"
     inkscape:snap-page="true"
     inkscape:snap-global="true"
     inkscape:snap-nodes="true"
     inkscape:snap-others="true"
     inkscape:snap-object-midpoints="true"
     inkscape:snap-center="true"
     inkscape:snap-text-baseline="true">
    <inkscape:grid
       type="xygrid"
       id="grid9"
       originx="3.8281501e-07"
       originy="1.0545939e-06"
       empspacing="10" />
    <sodipodi:guide
       position="3.8281508e-07,-5.9564851"
       orientation="1,0"
       id="guide45225" />
    <sodipodi:guide
       position="0.79375037,4.6268481"
       orientation="0,-1"
       id="guide45227" />
  </sodipodi:namedview>
  <defs
     id="defs2" />
  <g
     inkscape:label="Слой 1"
     inkscape:groupmode="layer"
     id="layer1"
     style="display:inline">
    <g
       aria-label="Dear.Fa"
       transform="scale(0.99526523,1.0047573)"
       id="text1091"
       style="font-size:10.6336px;line-height:17.0139px;fill:#ffffff;fill-opacity:1;stroke:none;stroke-width:0.265841">
      <path
         d="M 1.0488218,0.86190299 V 6.8900328 h 1.2668938 q 1.604386,0 2.3468688,-0.7269063 0.747675,-0.7269062 0.747675,-2.2949469 0,-1.5576563 -0.747675,-2.2793703 Q 3.9201016,0.86190299 2.3157156,0.86190299 Z M -5.4948032e-8,-1.4994293e-7 H 2.1547578 q 2.2534094,0 3.3074235,0.93978595994293 1.0540141,0.93459379 1.0540141,2.92839379 0,2.0041844 -1.0592063,2.9439704 Q 4.3977829,7.751936 2.1547578,7.751936 H -5.4948032e-8 Z"
         id="path127"
         style="fill:#ffffff;fill-opacity:1;stroke:none" />
      <path
         d="M 13.120658,4.6054703 V 5.0727671 H 8.7280673 q 0.062306,0.9865157 0.5919094,1.5057345 0.5347953,0.5140265 1.4849653,0.5140265 0.550372,0 1.064399,-0.1349968 0.519219,-0.1349969 1.028053,-0.4049907 v 0.9034407 q -0.514027,0.2180718 -1.054014,0.3323 -0.539988,0.1142281 -1.095552,0.1142281 -1.391506,0 -2.2066795,-0.8099813 Q 7.7311673,6.2825469 7.7311673,4.901425 q 0,-1.4278516 0.7684437,-2.2637938 0.773636,-0.8411344 2.082067,-0.8411344 1.173435,0 1.853611,0.7580594 0.685369,0.7528672 0.685369,2.0509141 z M 12.165295,4.3250921 Q 12.154911,3.5410718 11.72396,3.0737749 11.2982,2.606478 10.592063,2.606478 q -0.7995972,0 -1.2824707,0.4517204 Q 8.831911,3.5099187 8.7592204,4.3302843 Z"
         id="path129"
         style="fill:#ffffff;fill-opacity:1;stroke:none" />
      <path
         d="m 17.331522,4.8287343 q -1.157858,0 -1.604386,0.2648016 -0.446528,0.2648016 -0.446528,0.9034406 0,0.5088344 0.3323,0.8099813 0.337492,0.2959547 0.913825,0.2959547 0.794405,0 1.272086,-0.5607563 0.482873,-0.5659484 0.482873,-1.5005422 V 4.8287343 Z M 19.237055,4.4341281 V 7.751936 H 18.281692 V 6.8692641 q -0.327107,0.5296031 -0.815173,0.7840203 -0.488066,0.249225 -1.194203,0.249225 -0.893057,0 -1.42266,-0.49845 -0.524411,-0.5036422 -0.524411,-1.3447766 0,-0.9813235 0.654216,-1.4797735 0.659408,-0.49845 1.962647,-0.49845 h 1.339584 v -0.093459 q 0,-0.6594078 -0.436143,-1.0176687 -0.430952,-0.3634532 -1.214972,-0.3634532 -0.49845,0 -0.970939,0.1194203 -0.472489,0.1194204 -0.908633,0.358261 V 2.2014874 q 0.524411,-0.2024953 1.017669,-0.3011469 0.493257,-0.1038437 0.960554,-0.1038437 1.261702,0 1.884764,0.6542156 0.623063,0.6542156 0.623063,1.9834157 z"
         id="path131"
         style="fill:#ffffff;fill-opacity:1;stroke:none" />
      <path
         d="m 24.574624,2.8297421 q -0.160958,-0.093459 -0.353069,-0.1349969 -0.186919,-0.04673 -0.415375,-0.04673 -0.809981,0 -1.246125,0.5296032 -0.430952,0.5244109 -0.430952,1.5109266 V 7.751936 H 21.168548 V 1.9366858 h 0.960555 v 0.9034407 q 0.301147,-0.5296032 0.784021,-0.7840204 0.482873,-0.2596093 1.173434,-0.2596093 0.09865,0 0.218072,0.015577 0.11942,0.010384 0.264801,0.036345 z"
         id="path133"
         style="fill:#ffffff;fill-opacity:1;stroke:none" />
      <path
         d="m 24.735582,6.4331203 h 1.095551 V 7.751936 h -1.095551 z"
         id="path135"
         style="fill:#ffffff;fill-opacity:1;stroke:none" />
      <path
         d="m 28.022236,-1.4994293e-7 h 4.454897 V 0.88267174 H 29.071058 V 3.1672343 h 3.073775 V 4.0499062 H 29.071058 V 7.751936 h -1.048822 z"
         id="path137"
         style="fill:#ffffff;fill-opacity:1;stroke:none" />
      <path
         d="m 35.763788,4.8287343 q -1.157858,0 -1.604386,0.2648016 -0.446528,0.2648016 -0.446528,0.9034406 0,0.5088344 0.3323,0.8099813 0.337492,0.2959547 0.913825,0.2959547 0.794405,0 1.272086,-0.5607563 0.482874,-0.5659484 0.482874,-1.5005422 V 4.8287343 Z M 37.669321,4.4341281 V 7.751936 H 36.713959 V 6.8692641 q -0.327108,0.5296031 -0.815174,0.7840203 -0.488066,0.249225 -1.194203,0.249225 -0.893056,0 -1.422659,-0.49845 -0.524411,-0.5036422 -0.524411,-1.3447766 0,-0.9813235 0.654215,-1.4797735 0.659408,-0.49845 1.962647,-0.49845 h 1.339585 v -0.093459 q 0,-0.6594078 -0.436144,-1.0176687 -0.430952,-0.3634532 -1.214972,-0.3634532 -0.49845,0 -0.970939,0.1194203 -0.472489,0.1194204 -0.908633,0.358261 V 2.2014874 q 0.524411,-0.2024953 1.017669,-0.3011469 0.493258,-0.1038437 0.960554,-0.1038437 1.261702,0 1.884765,0.6542156 0.623062,0.6542156 0.623062,1.9834157 z"
         id="path139"
         style="fill:#ffffff;fill-opacity:1;stroke:none" />
    </g>
    <g
       aria-label="Соцсеть для интелегенции"
       id="text40229"
       style="font-size:4.7625px;line-height:1.25;fill:#ffffff;fill-opacity:1;stroke:none;stroke-width:0.264583">
      <path
         d="M 2.8026712,8.7017946 V 9.1971131 Q 2.5654764,8.9761964 2.2957254,8.8669008 2.0282999,8.7576051 1.7259928,8.7576051 q -0.5953125,0 -0.91157223,0.365094 -0.31625975,0.3627685 -0.31625975,1.0510989 0,0.686004 0.31625975,1.051098 0.31625973,0.362769 0.91157223,0.362769 0.3023071,0 0.5697326,-0.109296 0.269751,-0.109295 0.5069458,-0.330212 v 0.490667 q -0.2464965,0.167432 -0.5232238,0.251148 -0.2744019,0.08372 -0.5813599,0.08372 -0.78832391,0 -1.24178459,-0.481366 -0.45346067,-0.483692 -0.45346067,-1.318524 0,-0.8371585 0.45346067,-1.3185244 0.45346068,-0.4836914 1.24178459,-0.4836914 0.3116089,0 0.5860107,0.083716 0.2767273,0.08139 0.518573,0.2464966 z"
         id="path142"
         style="fill:#ffffff;fill-opacity:1;stroke:none" />
      <path
         d="m 4.5188454,9.6017396 q -0.3441651,0 -0.5441528,0.269751 -0.1999878,0.2674254 -0.1999878,0.7348384 0,0.467414 0.1976623,0.737165 0.1999878,0.267425 0.5464783,0.267425 0.3418396,0 0.5418273,-0.269751 0.1999878,-0.269751 0.1999878,-0.734839 0,-0.462762 -0.1999878,-0.732513 Q 4.860685,9.6017396 4.5188454,9.6017396 Z m 0,-0.3627685 q 0.5581054,0 0.8766906,0.3627685 0.3185852,0.3627685 0.3185852,1.0045894 0,0.639496 -0.3185852,1.00459 -0.3185852,0.362769 -0.8766906,0.362769 -0.5604309,0 -0.8790161,-0.362769 -0.3162598,-0.365094 -0.3162598,-1.00459 0,-0.6418209 0.3162598,-1.0045894 0.3185852,-0.3627685 0.8790161,-0.3627685 z"
         id="path144"
         style="fill:#ffffff;fill-opacity:1;stroke:none" />
      <path
         d="M 8.6558022,11.90625 H 6.4071023 V 9.3017579 H 6.8373086 V 11.56441 H 8.2255959 V 9.3017579 H 8.6558022 V 11.56441 h 0.3418395 v 0.999939 H 8.6558022 Z"
         id="path146"
         style="fill:#ffffff;fill-opacity:1;stroke:none" />
      <path
         d="m 11.539347,9.4017518 v 0.3999756 q -0.181385,-0.099994 -0.365094,-0.1488281 -0.181385,-0.05116 -0.36742,-0.05116 -0.416254,0 -0.646472,0.2651001 -0.2302185,0.2627746 -0.2302185,0.7394896 0,0.476715 0.2302185,0.741816 0.230218,0.262774 0.646472,0.262774 0.186035,0 0.36742,-0.04883 0.183709,-0.05116 0.365094,-0.151154 v 0.395325 q -0.179059,0.08372 -0.372071,0.125574 -0.190686,0.04186 -0.406952,0.04186 -0.588336,0 -0.9348263,-0.369745 -0.3464905,-0.369745 -0.3464905,-0.997614 0,-0.6371703 0.3488159,-1.0022643 0.3511409,-0.3650939 0.9604069,-0.3650939 0.197662,0 0.386023,0.041858 0.18836,0.039532 0.365094,0.1209228 z"
         id="path148"
         style="fill:#ffffff;fill-opacity:1;stroke:none" />
      <path
         d="m 14.511258,10.497034 v 0.209289 h -1.967322 q 0.0279,0.441834 0.2651,0.674378 0.23952,0.230218 0.665076,0.230218 0.246496,0 0.476715,-0.06046 0.232544,-0.06046 0.460437,-0.181384 V 11.7737 q -0.230219,0.09767 -0.472064,0.148828 -0.241846,0.05116 -0.490668,0.05116 -0.623218,0 -0.988312,-0.362769 -0.362768,-0.362768 -0.362768,-0.981335 0,-0.639496 0.344165,-1.0138918 0.34649,-0.3767211 0.932501,-0.3767211 0.525549,0 0.830182,0.3395141 0.306958,0.3371887 0.306958,0.9185488 z M 14.083377,10.37146 q -0.0047,-0.351141 -0.197662,-0.5604309 -0.190686,-0.2092895 -0.506946,-0.2092895 -0.358118,0 -0.574384,0.2023132 -0.21394,0.2023132 -0.246496,0.5697322 z"
         id="path150"
         style="fill:#ffffff;fill-opacity:1;stroke:none" />
      <path
         d="m 14.904257,9.3017579 h 2.495197 V 9.6435975 H 16.362308 V 11.90625 H 15.941403 V 9.6435975 h -1.037146 z"
         id="path152"
         style="fill:#ffffff;fill-opacity:1;stroke:none" />
      <path
         d="m 19.608622,11.134204 q 0,-0.209289 -0.153479,-0.318585 -0.151154,-0.109296 -0.444159,-0.109296 h -0.609265 v 0.858087 h 0.609265 q 0.293005,0 0.444159,-0.109295 0.153479,-0.111621 0.153479,-0.320911 z M 17.971513,9.3017579 h 0.430206 v 1.0627261 h 0.627868 q 0.497644,0 0.76507,0.190686 0.269751,0.18836 0.269751,0.579034 0,0.390674 -0.269751,0.58136 -0.267426,0.190686 -0.76507,0.190686 h -1.058074 z"
         id="path154"
         style="fill:#ffffff;fill-opacity:1;stroke:none" />
      <path
         d="M 22.889816,11.56441 H 24.1316 V 9.6435975 H 23.231655 V 9.969159 q 0,0.958081 -0.274401,1.469678 z m -0.620893,0 q 0.211615,-0.09302 0.304633,-0.29068 0.227893,-0.490667 0.227893,-1.4789789 V 9.3017579 h 1.760358 V 11.56441 h 0.341839 v 0.999939 H 24.561807 V 11.90625 h -2.111499 v 0.658099 h -0.34184 V 11.56441 Z"
         id="path156"
         style="fill:#ffffff;fill-opacity:1;stroke:none" />
      <path
         d="m 25.329201,11.90625 v -0.355792 q 0.42323,-0.06511 0.553455,-0.358118 0.15813,-0.411603 0.15813,-1.4650267 V 9.3017579 h 1.760357 V 11.90625 h -0.42788 V 9.6435975 h -0.904596 v 0.2581238 q 0,1.0045897 -0.204639,1.4557247 -0.218591,0.481366 -0.934827,0.548804 z"
         id="path158"
         style="fill:#ffffff;fill-opacity:1;stroke:none" />
      <path
         d="m 29.075485,10.052875 q 0,0.193011 0.148828,0.302307 0.148828,0.109296 0.425555,0.109296 h 0.576709 V 9.6435975 h -0.576709 q -0.276727,0 -0.425555,0.1069702 -0.148828,0.1069702 -0.148828,0.3023073 z m -0.609265,1.853375 0.7953,-1.141791 q -0.269751,-0.06046 -0.44881,-0.218591 -0.179059,-0.160455 -0.179059,-0.492993 0,-0.3767213 0.248822,-0.5627565 0.251148,-0.1883606 0.755768,-0.1883606 h 1.018542 V 11.90625 h -0.430206 v -1.099933 h -0.532525 l -0.767395,1.099933 z"
         id="path160"
         style="fill:#ffffff;fill-opacity:1;stroke:none" />
      <path
         d="M 35.2379,9.3017579 V 11.90625 H 34.812345 V 9.81568 l -1.255738,2.09057 H 33.007804 V 9.3017579 h 0.425555 v 2.0859191 l 1.253412,-2.0859191 z"
         id="path162"
         style="fill:#ffffff;fill-opacity:1;stroke:none" />
      <path
         d="m 36.102961,9.3017579 h 0.430207 v 1.0627261 h 1.388287 V 9.3017579 h 0.430206 V 11.90625 h -0.430206 v -1.199927 h -1.388287 v 1.199927 h -0.430207 z"
         id="path164"
         style="fill:#ffffff;fill-opacity:1;stroke:none" />
      <path
         d="m 38.923722,9.3017579 h 2.495196 V 9.6435975 H 40.381772 V 11.90625 H 39.960868 V 9.6435975 h -1.037146 z"
         id="path166"
         style="fill:#ffffff;fill-opacity:1;stroke:none" />
      <path
         d="m 44.235026,10.497034 v 0.209289 h -1.967322 q 0.02791,0.441834 0.2651,0.674378 0.239521,0.230218 0.665076,0.230218 0.246497,0 0.476715,-0.06046 0.232544,-0.06046 0.460437,-0.181384 V 11.7737 q -0.230218,0.09767 -0.472064,0.148828 -0.241846,0.05116 -0.490668,0.05116 -0.623218,0 -0.988312,-0.362769 -0.362768,-0.362768 -0.362768,-0.981335 0,-0.639496 0.344165,-1.0138918 0.34649,-0.3767211 0.932501,-0.3767211 0.525549,0 0.830182,0.3395141 0.306958,0.3371887 0.306958,0.9185488 z M 43.807145,10.37146 q -0.0047,-0.351141 -0.197662,-0.5604309 -0.190686,-0.2092895 -0.506946,-0.2092895 -0.358118,0 -0.574384,0.2023132 -0.21394,0.2023132 -0.246496,0.5697322 z"
         id="path168"
         style="fill:#ffffff;fill-opacity:1;stroke:none" />
      <path
         d="m 44.665232,11.90625 v -0.355792 q 0.42323,-0.06511 0.553455,-0.358118 0.15813,-0.411603 0.15813,-1.4650267 V 9.3017579 h 1.760357 V 11.90625 h -0.42788 V 9.6435975 h -0.904596 v 0.2581238 q 0,1.0045897 -0.204639,1.4557247 -0.218591,0.481366 -0.934827,0.548804 z"
         id="path170"
         style="fill:#ffffff;fill-opacity:1;stroke:none" />
      <path
         d="m 50.209078,10.497034 v 0.209289 h -1.967321 q 0.0279,0.441834 0.2651,0.674378 0.23952,0.230218 0.665075,0.230218 0.246497,0 0.476716,-0.06046 0.232543,-0.06046 0.460437,-0.181384 V 11.7737 q -0.230219,0.09767 -0.472065,0.148828 -0.241845,0.05116 -0.490667,0.05116 -0.623218,0 -0.988312,-0.362769 -0.362769,-0.362768 -0.362769,-0.981335 0,-0.639496 0.344165,-1.0138918 0.346491,-0.3767211 0.932502,-0.3767211 0.525549,0 0.830181,0.3395141 0.306958,0.3371887 0.306958,0.9185488 z m -0.42788,-0.125574 q -0.0047,-0.351141 -0.197663,-0.5604309 -0.190686,-0.2092895 -0.506946,-0.2092895 -0.358117,0 -0.574383,0.2023132 -0.213941,0.2023132 -0.246497,0.5697322 z"
         id="path172"
         style="fill:#ffffff;fill-opacity:1;stroke:none" />
      <path
         d="M 50.895083,11.90625 V 9.3017579 H 52.73218 V 9.6435975 H 51.325289 V 11.90625 Z"
         id="path174"
         style="fill:#ffffff;fill-opacity:1;stroke:none" />
      <path
         d="m 55.641306,10.497034 v 0.209289 h -1.967321 q 0.0279,0.441834 0.2651,0.674378 0.23952,0.230218 0.665076,0.230218 0.246496,0 0.476715,-0.06046 0.232544,-0.06046 0.460437,-0.181384 V 11.7737 q -0.230219,0.09767 -0.472065,0.148828 -0.241845,0.05116 -0.490667,0.05116 -0.623218,0 -0.988312,-0.362769 -0.362769,-0.362768 -0.362769,-0.981335 0,-0.639496 0.344165,-1.0138918 0.346491,-0.3767211 0.932502,-0.3767211 0.525549,0 0.830182,0.3395141 0.306957,0.3371887 0.306957,0.9185488 z m -0.42788,-0.125574 q -0.0047,-0.351141 -0.197663,-0.5604309 -0.190686,-0.2092895 -0.506945,-0.2092895 -0.358118,0 -0.574384,0.2023132 -0.21394,0.2023132 -0.246497,0.5697322 z"
         id="path176"
         style="fill:#ffffff;fill-opacity:1;stroke:none" />
      <path
         d="m 56.327311,9.3017579 h 0.430207 v 1.0627261 h 1.388287 V 9.3017579 h 0.430206 V 11.90625 h -0.430206 v -1.199927 h -1.388287 v 1.199927 h -0.430207 z"
         id="path178"
         style="fill:#ffffff;fill-opacity:1;stroke:none" />
      <path
         d="m 61.689773,11.90625 h -2.2487 V 9.3017579 h 0.430206 V 11.56441 h 1.388288 V 9.3017579 h 0.430206 V 11.56441 h 0.34184 v 0.999939 h -0.34184 z"
         id="path180"
         style="fill:#ffffff;fill-opacity:1;stroke:none" />
      <path
         d="M 64.912831,9.3017579 V 11.90625 H 64.487275 V 9.81568 l -1.255737,2.09057 H 62.682734 V 9.3017579 h 0.425556 v 2.0859191 l 1.253411,-2.0859191 z"
         id="path182"
         style="fill:#ffffff;fill-opacity:1;stroke:none" />
      <path
         d="M 68.007992,9.3017579 V 11.90625 H 67.582437 V 9.81568 l -1.255738,2.09057 H 65.777896 V 9.3017579 h 0.425555 v 2.0859191 l 1.253412,-2.0859191 z"
         id="path184"
         style="fill:#ffffff;fill-opacity:1;stroke:none" />
    </g>
  </g>
</svg>
