<svg xmlns="http://www.w3.org/2000/svg" viewBox="0 0 20 40">
  <defs/>
  <path fill="#fd3018" d="M10 20a.547.547 0 01-.386-.164l-.026-.026c-.852-.843-1.652-1.615-2.426-2.362-2.077-2.003-3.87-3.733-5.117-5.412C.65 10.158 0 8.406 0 6.522c0-1.73.518-3.349 1.46-4.557C2.445.698 3.813 0 5.312 0c2.107 0 3.441 1.425 4.19 2.62.193.31.358.62.497.913.139-.292.304-.603.498-.913C11.246 1.425 12.58 0 14.688 0c1.498 0 2.866.698 3.853 1.965C19.48 3.173 20 4.792 20 6.522c0 1.884-.65 3.636-2.045 5.514-1.246 1.679-3.04 3.409-5.117 5.412-.774.747-1.574 1.519-2.426 2.362l-.026.026A.547.547 0 0110 20zM5.312 1.326c-1.157 0-2.213.539-2.974 1.516-.752.966-1.166 2.273-1.166 3.68 0 3.405 2.685 5.996 6.75 9.916.667.644 1.354 1.306 2.078 2.019.724-.713 1.41-1.375 2.078-2.019 4.065-3.92 6.75-6.51 6.75-9.916 0-1.407-.414-2.714-1.166-3.68-.761-.977-1.817-1.516-2.974-1.516-1.607 0-2.646 1.12-3.234 2.06a8.333 8.333 0 00-.897 2.02c-.078.273-.303.457-.557.457-.254 0-.479-.184-.557-.457a8.334 8.334 0 00-.897-2.02c-.588-.94-1.627-2.06-3.233-2.06z"/>
  <g fill="#fd3018">
    <path d="M10 40a.544.544 0 01-.386-.165 258.341 258.341 0 00-2.426-2.374C2.883 33.287 0 30.529 0 26.51 0 22.8 2.306 20 5.312 20c2.37 0 3.89 1.883 4.688 3.58.797-1.697 2.318-3.58 4.688-3.58C17.694 20 20 22.8 20 26.512c0 4.017-2.883 6.775-7.188 10.949-.763.74-1.574 1.526-2.426 2.374A.544.544 0 0110 40z"/>
    <path d="M10.386 39.835c.852-.848 1.663-1.634 2.426-2.374C17.117 33.287 20 30.529 20 26.51 20 22.8 17.694 20 14.687 20c-2.369 0-3.89 1.883-4.687 3.58V40a.544.544 0 00.386-.165z"/>
  </g>
</svg>
